<?xml version="1.0" encoding="utf-8"?>
<!-- Generator: Adobe Illustrator 23.0.4, SVG Export Plug-In . SVG Version: 6.00 Build 0)  -->
<svg version="1.1" id="Layer_1" xmlns="http://www.w3.org/2000/svg" xmlns:xlink="http://www.w3.org/1999/xlink" x="0px" y="0px"
	 viewBox="0 0 262.63 109.41" style="enable-background:new 0 0 262.63 109.41;" xml:space="preserve">
<style type="text/css">
	.st0{fill:#FFFFFF;}
	.st1{fill:#00AEEF;}
</style>
<g>
	<path d="M0.85,95.64C0.28,95.24,0,94.69,0,93.99c0-0.53,0.18-1,0.55-1.4s0.83-0.6,1.4-0.6c0.3,0,0.6,0.07,0.9,0.2
		c1.07,0.47,2.13,0.83,3.2,1.1c1.07,0.27,2.27,0.4,3.6,0.4c3.7,0,5.55-1.18,5.55-3.55c0-0.77-0.42-1.35-1.28-1.75
		c-0.85-0.4-2.24-0.85-4.17-1.35c-1.97-0.47-3.59-0.95-4.88-1.45s-2.38-1.26-3.3-2.28c-0.92-1.02-1.38-2.36-1.38-4.02
		c0-2.33,0.84-4.23,2.52-5.7s4.09-2.2,7.23-2.2c2.57,0,4.98,0.42,7.25,1.25c0.47,0.13,0.83,0.38,1.08,0.75s0.38,0.75,0.38,1.15
		c0,0.53-0.19,1-0.58,1.4c-0.38,0.4-0.86,0.6-1.42,0.6c-0.17,0-0.38-0.03-0.65-0.1c-1.93-0.6-3.83-0.9-5.7-0.9
		c-1.8,0-3.21,0.32-4.22,0.97C5.06,77.16,4.55,78,4.55,79.04c0,1,0.47,1.73,1.4,2.2s2.38,0.92,4.35,1.35
		c1.97,0.5,3.57,0.99,4.8,1.47c1.23,0.48,2.29,1.24,3.18,2.28c0.88,1.03,1.32,2.42,1.32,4.15c0,2.13-0.84,3.9-2.52,5.3
		s-4.06,2.1-7.12,2.1C6.62,97.89,3.59,97.14,0.85,95.64z"/>
	<path d="M27,91.29v-15.5h-3.55c-0.27,0-0.49-0.09-0.68-0.28c-0.18-0.18-0.27-0.41-0.27-0.67c0-0.33,0.15-0.62,0.45-0.85l6.8-6.65
		c0.3-0.3,0.58-0.45,0.85-0.45s0.49,0.1,0.67,0.3s0.28,0.43,0.28,0.7v4h5.65c0.57,0,1.03,0.18,1.4,0.55s0.55,0.83,0.55,1.4
		c0,0.53-0.18,0.99-0.55,1.38c-0.37,0.38-0.83,0.58-1.4,0.58h-5.65v15.1c0,1.3,0.31,2.12,0.92,2.47c0.62,0.35,1.39,0.53,2.33,0.53
		c0.67,0,1.33-0.1,2-0.3c0.13-0.03,0.28-0.07,0.42-0.1c0.15-0.03,0.34-0.05,0.58-0.05c0.47,0,0.88,0.17,1.25,0.53
		c0.37,0.35,0.55,0.77,0.55,1.27c0,0.77-0.38,1.35-1.15,1.75c-1.3,0.6-2.68,0.9-4.15,0.9C29.44,97.89,27,95.69,27,91.29z"/>
	<path d="M45.25,96.99c-0.43-0.43-0.65-0.97-0.65-1.6V73.94c0-0.63,0.22-1.17,0.65-1.62s0.97-0.67,1.6-0.67s1.17,0.22,1.62,0.67
		s0.67,0.99,0.67,1.62v2.15c2.33-3.13,4.95-4.7,7.85-4.7h0.25c0.63,0,1.16,0.22,1.58,0.65s0.62,0.97,0.62,1.6s-0.22,1.15-0.65,1.55
		s-0.98,0.6-1.65,0.6h-0.25c-1.6,0-3.07,0.39-4.4,1.17s-2.45,1.86-3.35,3.22v15.2c0,0.63-0.22,1.17-0.67,1.6s-0.99,0.65-1.62,0.65
		C46.22,97.64,45.69,97.42,45.25,96.99z"/>
	<path d="M64.1,65.94c-0.5-0.5-0.75-1.1-0.75-1.8v-0.2c0-0.7,0.25-1.3,0.75-1.8s1.1-0.75,1.8-0.75h0.3c0.7,0,1.3,0.25,1.8,0.75
		s0.75,1.1,0.75,1.8v0.2c0,0.7-0.25,1.3-0.75,1.8s-1.1,0.75-1.8,0.75h-0.3C65.2,66.69,64.6,66.44,64.1,65.94z M64.4,96.99
		c-0.43-0.43-0.65-0.97-0.65-1.6V73.94c0-0.63,0.22-1.17,0.65-1.62s0.97-0.67,1.6-0.67c0.67,0,1.22,0.22,1.65,0.65
		s0.65,0.98,0.65,1.65V95.4c0,0.63-0.22,1.17-0.67,1.6s-0.99,0.65-1.62,0.65C65.37,97.64,64.84,97.42,64.4,96.99z"/>
	<path d="M76.85,96.99c-0.43-0.43-0.65-0.97-0.65-1.6V73.94c0-0.63,0.22-1.17,0.65-1.62s0.97-0.67,1.6-0.67s1.17,0.22,1.62,0.67
		s0.67,0.99,0.67,1.62v2.05c1.27-1.4,2.63-2.52,4.1-3.35c1.47-0.83,3.2-1.25,5.2-1.25c1.83,0,3.42,0.43,4.78,1.3
		c1.35,0.87,2.38,2.05,3.1,3.55S99,79.39,99,81.19v14.2c0,0.63-0.22,1.17-0.67,1.6s-0.99,0.65-1.62,0.65s-1.17-0.22-1.6-0.65
		s-0.65-0.97-0.65-1.6v-13.7c0-4.07-1.83-6.1-5.5-6.1c-1.67,0-3.16,0.43-4.48,1.3s-2.56,2.03-3.72,3.5v15c0,0.63-0.22,1.17-0.67,1.6
		s-0.99,0.65-1.62,0.65C77.82,97.64,77.29,97.42,76.85,96.99z"/>
	<path d="M112.7,108.64c-1.97-0.5-3.58-1.12-4.85-1.85c-0.6-0.37-0.9-0.95-0.9-1.75c0-0.53,0.19-1.01,0.58-1.43
		c0.38-0.42,0.86-0.62,1.42-0.62c0.27,0,0.57,0.07,0.9,0.2c2.53,1.27,5.28,1.9,8.25,1.9c5.1,0,7.65-2.72,7.65-8.15v-3.35
		c-2.37,2.53-5.22,3.8-8.55,3.8c-1.97,0-3.88-0.49-5.72-1.47c-1.85-0.98-3.38-2.45-4.58-4.4s-1.8-4.33-1.8-7.12s0.6-5.17,1.8-7.12
		s2.72-3.42,4.58-4.4c1.85-0.98,3.76-1.47,5.72-1.47c3.33,0,6.18,1.27,8.55,3.8v-1.25c0-0.63,0.22-1.17,0.65-1.62
		c0.43-0.45,0.97-0.67,1.6-0.67s1.17,0.22,1.62,0.67s0.67,0.99,0.67,1.62v22.35c0,4.2-1.02,7.43-3.05,9.7s-4.93,3.4-8.7,3.4
		C116.62,109.39,114.67,109.14,112.7,108.64z M122.3,92.24c1.2-0.67,2.35-1.57,3.45-2.7v-10.3c-1.1-1.13-2.25-2.03-3.45-2.7
		s-2.58-1-4.15-1c-2.5,0-4.54,0.76-6.12,2.27c-1.58,1.52-2.38,3.71-2.38,6.58s0.79,5.06,2.38,6.58c1.58,1.52,3.62,2.27,6.12,2.27
		C119.72,93.24,121.1,92.9,122.3,92.24z"/>
	<path d="M137.35,95.64c-0.57-0.4-0.85-0.95-0.85-1.65c0-0.53,0.18-1,0.55-1.4s0.83-0.6,1.4-0.6c0.3,0,0.6,0.07,0.9,0.2
		c1.07,0.47,2.13,0.83,3.2,1.1c1.07,0.27,2.27,0.4,3.6,0.4c3.7,0,5.55-1.18,5.55-3.55c0-0.77-0.42-1.35-1.28-1.75
		c-0.85-0.4-2.24-0.85-4.17-1.35c-1.97-0.47-3.59-0.95-4.88-1.45s-2.38-1.26-3.3-2.28c-0.92-1.02-1.38-2.36-1.38-4.02
		c0-2.33,0.84-4.23,2.52-5.7s4.09-2.2,7.23-2.2c2.57,0,4.98,0.42,7.25,1.25c0.47,0.13,0.83,0.38,1.08,0.75s0.38,0.75,0.38,1.15
		c0,0.53-0.19,1-0.58,1.4c-0.38,0.4-0.86,0.6-1.42,0.6c-0.17,0-0.38-0.03-0.65-0.1c-1.93-0.6-3.83-0.9-5.7-0.9
		c-1.8,0-3.21,0.32-4.22,0.97c-1.02,0.65-1.53,1.49-1.53,2.53c0,1,0.47,1.73,1.4,2.2s2.38,0.92,4.35,1.35
		c1.97,0.5,3.57,0.99,4.8,1.47c1.23,0.48,2.29,1.24,3.18,2.28c0.88,1.03,1.32,2.42,1.32,4.15c0,2.13-0.84,3.9-2.52,5.3
		s-4.06,2.1-7.12,2.1C143.12,97.89,140.08,97.14,137.35,95.64z"/>
	<path d="M162.85,108.46c-0.43-0.45-0.65-0.99-0.65-1.62V73.89c0-0.63,0.22-1.17,0.65-1.6s0.97-0.65,1.6-0.65s1.17,0.22,1.62,0.65
		s0.67,0.97,0.67,1.6v1.3c2.43-2.53,5.28-3.8,8.55-3.8c2.07,0,4.03,0.53,5.88,1.58s3.35,2.58,4.5,4.6c1.15,2.02,1.73,4.38,1.73,7.08
		s-0.58,5.06-1.73,7.08c-1.15,2.02-2.65,3.55-4.5,4.6c-1.85,1.05-3.81,1.58-5.88,1.58c-3.27,0-6.12-1.27-8.55-3.8v12.75
		c0,0.67-0.22,1.22-0.65,1.65s-0.98,0.65-1.65,0.65C163.82,109.14,163.28,108.91,162.85,108.46z M180.6,91.29
		c1.5-1.57,2.25-3.78,2.25-6.65s-0.75-5.08-2.25-6.65s-3.48-2.35-5.95-2.35c-1.53,0-2.98,0.34-4.33,1.03
		c-1.35,0.68-2.54,1.59-3.58,2.72v10.5c1.03,1.13,2.22,2.04,3.58,2.72c1.35,0.68,2.79,1.03,4.33,1.03
		C177.12,93.64,179.1,92.85,180.6,91.29z"/>
	<path d="M196.18,96.99c-1.25-0.6-2.24-1.47-2.97-2.62s-1.1-2.47-1.1-3.97c0-2.47,0.98-4.43,2.92-5.9c1.95-1.47,4.81-2.2,8.58-2.2
		h6.05v-0.4c0-2.2-0.54-3.78-1.62-4.75s-2.77-1.45-5.07-1.45c-1.27,0-2.39,0.1-3.38,0.3c-0.98,0.2-2.08,0.5-3.28,0.9
		c-0.27,0.07-0.48,0.1-0.65,0.1c-0.5,0-0.93-0.18-1.3-0.55s-0.55-0.82-0.55-1.35c0-0.9,0.43-1.53,1.3-1.9
		c2.83-1.2,5.72-1.8,8.65-1.8c2.3,0,4.24,0.47,5.83,1.4c1.58,0.93,2.75,2.14,3.5,3.62s1.12,3.09,1.12,4.82v14.15
		c0,0.63-0.23,1.17-0.68,1.6c-0.45,0.43-0.99,0.65-1.62,0.65s-1.17-0.22-1.6-0.65s-0.65-0.97-0.65-1.6v-1.3
		c-2.47,2.53-5.6,3.8-9.4,3.8C198.78,97.89,197.43,97.59,196.18,96.99z M206.2,92.81c1.37-0.72,2.52-1.61,3.45-2.67v-4.2h-5.45
		c-5.03,0-7.55,1.32-7.55,3.95c0,1.2,0.41,2.17,1.23,2.9c0.82,0.73,2.17,1.1,4.08,1.1C203.42,93.89,204.83,93.53,206.2,92.81z"/>
	<path d="M222.5,96.99c-0.43-0.43-0.65-0.97-0.65-1.6V73.94c0-0.63,0.22-1.17,0.65-1.62s0.97-0.67,1.6-0.67s1.17,0.22,1.62,0.67
		s0.67,0.99,0.67,1.62v2.15c2.33-3.13,4.95-4.7,7.85-4.7h0.25c0.63,0,1.16,0.22,1.58,0.65s0.62,0.97,0.62,1.6s-0.22,1.15-0.65,1.55
		s-0.98,0.6-1.65,0.6h-0.25c-1.6,0-3.07,0.39-4.4,1.17s-2.45,1.86-3.35,3.22v15.2c0,0.63-0.22,1.17-0.67,1.6s-0.99,0.65-1.62,0.65
		C223.47,97.64,222.93,97.42,222.5,96.99z"/>
	<path d="M241.65,96.99c-0.43-0.43-0.65-0.97-0.65-1.6V62.94c0-0.63,0.22-1.17,0.65-1.62s0.97-0.67,1.6-0.67s1.17,0.22,1.62,0.67
		s0.67,0.99,0.67,1.62v20.45l11.9-11c0.5-0.43,1-0.65,1.5-0.65c0.77,0,1.32,0.22,1.67,0.65s0.52,0.95,0.52,1.55
		c0,0.57-0.28,1.13-0.85,1.7l-7.2,6.45l9.05,12c0.33,0.43,0.5,0.88,0.5,1.35c0,0.67-0.22,1.2-0.65,1.6c-0.43,0.4-0.98,0.6-1.65,0.6
		c-0.33,0-0.67-0.08-1-0.25s-0.62-0.4-0.85-0.7l-8.6-11.7l-4.35,3.95v6.45c0,0.63-0.22,1.17-0.67,1.6s-0.99,0.65-1.62,0.65
		C242.62,97.64,242.08,97.42,241.65,96.99z"/>
	<g>
		<path class="st0" d="M65.97,66.61c-1.94,0-3.52-1.58-3.52-3.52s1.58-3.52,3.52-3.52s3.52,1.58,3.52,3.52S67.91,66.61,65.97,66.61z
			"/>
		<path class="st1" d="M65.97,60.46c1.46,0,2.64,1.18,2.64,2.64c0,1.46-1.18,2.64-2.64,2.64c-1.46,0-2.64-1.18-2.64-2.64
			C63.33,61.64,64.51,60.46,65.97,60.46 M65.97,58.71c-2.42,0-4.39,1.97-4.39,4.39s1.97,4.39,4.39,4.39s4.39-1.97,4.39-4.39
			C70.37,60.68,68.4,58.71,65.97,58.71L65.97,58.71z"/>
	</g>
</g>
<g>
	<circle class="st1" cx="130.46" cy="25.17" r="25.17"/>
	<g>
		<path class="st0" d="M122.06,35.72c-0.57-0.4-0.85-0.95-0.85-1.65c0-0.53,0.18-1,0.55-1.4s0.83-0.6,1.4-0.6
			c0.3,0,0.6,0.07,0.9,0.2c1.07,0.47,2.13,0.83,3.2,1.1c1.07,0.27,2.27,0.4,3.6,0.4c3.7,0,5.55-1.18,5.55-3.55
			c0-0.77-0.42-1.35-1.28-1.75c-0.85-0.4-2.24-0.85-4.17-1.35c-1.97-0.47-3.59-0.95-4.88-1.45s-2.38-1.26-3.3-2.28
			c-0.92-1.02-1.38-2.36-1.38-4.02c0-2.33,0.84-4.23,2.52-5.7s4.09-2.2,7.23-2.2c2.57,0,4.98,0.42,7.25,1.25
			c0.47,0.13,0.83,0.38,1.08,0.75s0.38,0.75,0.38,1.15c0,0.53-0.19,1-0.58,1.4c-0.38,0.4-0.86,0.6-1.42,0.6
			c-0.17,0-0.38-0.03-0.65-0.1c-1.93-0.6-3.83-0.9-5.7-0.9c-1.8,0-3.21,0.32-4.22,0.97c-1.02,0.65-1.53,1.49-1.53,2.53
			c0,1,0.47,1.73,1.4,2.2s2.38,0.92,4.35,1.35c1.97,0.5,3.57,0.99,4.8,1.47c1.23,0.48,2.29,1.24,3.18,2.28
			c0.88,1.03,1.32,2.42,1.32,4.15c0,2.13-0.84,3.9-2.52,5.3s-4.06,2.1-7.12,2.1C127.82,37.97,124.79,37.22,122.06,35.72z"/>
		<g>
			<path class="st1" d="M121.6,36.07c-1.87,0-3.39-1.52-3.39-3.39s1.52-3.39,3.39-3.39s3.39,1.52,3.39,3.39
				S123.47,36.07,121.6,36.07z"/>
			<path class="st0" d="M121.6,30.04c1.46,0,2.64,1.18,2.64,2.64c0,1.46-1.18,2.64-2.64,2.64c-1.46,0-2.64-1.18-2.64-2.64
				C118.95,31.22,120.14,30.04,121.6,30.04 M121.6,28.54c-2.28,0-4.14,1.86-4.14,4.14s1.86,4.14,4.14,4.14s4.14-1.86,4.14-4.14
				S123.88,28.54,121.6,28.54L121.6,28.54z"/>
		</g>
	</g>
</g>
</svg>
